<?xml version="1.0" encoding="UTF-8" standalone="no"?>
<!-- Created with Inkscape (http://www.inkscape.org/) -->

<svg
   xmlns:dc="http://purl.org/dc/elements/1.1/"
   xmlns:cc="http://creativecommons.org/ns#"
   xmlns:rdf="http://www.w3.org/1999/02/22-rdf-syntax-ns#"
   xmlns:svg="http://www.w3.org/2000/svg"
   xmlns="http://www.w3.org/2000/svg"
   xmlns:sodipodi="http://sodipodi.sourceforge.net/DTD/sodipodi-0.dtd"
   xmlns:inkscape="http://www.inkscape.org/namespaces/inkscape"
   width="170mm"
   height="55mm"
   viewBox="0 0 602.36221 194.88189"
   id="svg2"
   version="1.1"
   inkscape:version="0.91 r13725"
   sodipodi:docname="parity.svg">
  <defs
     id="defs4" />
  <sodipodi:namedview
     id="base"
     pagecolor="#ffffff"
     bordercolor="#666666"
     borderopacity="1.0"
     inkscape:pageopacity="0.0"
     inkscape:pageshadow="2"
     inkscape:zoom="0.98994949"
     inkscape:cx="460.03322"
     inkscape:cy="370.58535"
     inkscape:document-units="px"
     inkscape:current-layer="layer1"
     showgrid="true"
     inkscape:snap-bbox="true"
     inkscape:bbox-nodes="true"
     inkscape:snap-bbox-edge-midpoints="false"
     inkscape:snap-nodes="true"
     inkscape:snap-smooth-nodes="true"
     inkscape:object-nodes="true"
     inkscape:snap-intersection-paths="true"
     inkscape:object-paths="true"
     inkscape:window-width="1855"
     inkscape:window-height="1056"
     inkscape:window-x="65"
     inkscape:window-y="24"
     inkscape:window-maximized="1">
    <inkscape:grid
       type="xygrid"
       id="grid3336" />
  </sodipodi:namedview>
  <metadata
     id="metadata7">
    <rdf:RDF>
      <cc:Work
         rdf:about="">
        <dc:format>image/svg+xml</dc:format>
        <dc:type
           rdf:resource="http://purl.org/dc/dcmitype/StillImage" />
        <dc:title></dc:title>
      </cc:Work>
    </rdf:RDF>
  </metadata>
  <g
     inkscape:label="Layer 1"
     inkscape:groupmode="layer"
     id="layer1"
     transform="translate(0,-857.48032)">
    <ellipse
       style="fill:none;fill-opacity:1;stroke:#000000;stroke-width:1;stroke-linecap:round;stroke-linejoin:round;stroke-miterlimit:4;stroke-dasharray:none;stroke-dashoffset:0;stroke-opacity:1"
       id="path4180"
       cx="125.53268"
       cy="927.53247"
       rx="45"
       ry="20" />
    <path
       style="fill:none;fill-opacity:1;stroke:#000000;stroke-width:1;stroke-linecap:round;stroke-linejoin:round;stroke-miterlimit:4;stroke-dasharray:none;stroke-dashoffset:0;stroke-opacity:1"
       id="path4180-3"
       sodipodi:type="arc"
       sodipodi:cx="125.45399"
       sodipodi:cy="986.35028"
       sodipodi:rx="45"
       sodipodi:ry="20"
       sodipodi:start="0"
       sodipodi:end="3.0824467"
       d="M 170.45399,986.35028 A 45,20 0 0 1 126.78458,1006.3415 45,20 0 0 1 80.532675,987.53251"
       sodipodi:open="true" />
    <path
       style="fill:none;fill-opacity:1;stroke:#000000;stroke-width:1;stroke-linecap:round;stroke-linejoin:round;stroke-miterlimit:4;stroke-dasharray:none;stroke-dashoffset:0;stroke-opacity:1"
       id="path4180-3-5"
       sodipodi:type="arc"
       sodipodi:cx="125.95497"
       sodipodi:cy="958.03961"
       sodipodi:rx="45"
       sodipodi:ry="20"
       sodipodi:start="0"
       sodipodi:end="3.0824467"
       d="M 170.95497,958.03961 A 45,20 0 0 1 127.28556,978.03087 45,20 0 0 1 81.033659,959.22184"
       sodipodi:open="true" />
    <path
       style="fill:none;fill-opacity:1;stroke:#000000;stroke-width:1;stroke-linecap:round;stroke-linejoin:round;stroke-miterlimit:4;stroke-dasharray:none;stroke-dashoffset:0;stroke-opacity:1"
       id="path4180-3-6"
       sodipodi:type="arc"
       sodipodi:cx="125.45399"
       sodipodi:cy="1016.3503"
       sodipodi:rx="45"
       sodipodi:ry="20"
       sodipodi:start="0"
       sodipodi:end="3.0824467"
       d="m 170.45399,1016.3503 a 45,20 0 0 1 -43.66941,19.9912 45,20 0 0 1 -46.251905,-18.809"
       sodipodi:open="true" />
    <path
       style="fill:none;fill-rule:evenodd;stroke:#000000;stroke-width:1px;stroke-linecap:butt;stroke-linejoin:miter;stroke-opacity:1"
       d="m 80.532676,927.53248 c 0,90.00002 0,90.00002 0,90.00002"
       id="path4224"
       inkscape:connector-curvature="0" />
    <path
       style="fill:none;fill-rule:evenodd;stroke:#000000;stroke-width:1px;stroke-linecap:butt;stroke-linejoin:miter;stroke-opacity:1"
       d="m 170.53268,927.53248 c 0,90.00002 0,90.00002 0,90.00002"
       id="path4226"
       inkscape:connector-curvature="0" />
    <ellipse
       style="fill:none;fill-opacity:1;stroke:#000000;stroke-width:1;stroke-linecap:round;stroke-linejoin:round;stroke-miterlimit:4;stroke-dasharray:none;stroke-dashoffset:0;stroke-opacity:1"
       id="path4180-2"
       cx="266.03268"
       cy="928.03247"
       rx="45"
       ry="20" />
    <path
       style="fill:none;fill-opacity:1;stroke:#000000;stroke-width:1;stroke-linecap:round;stroke-linejoin:round;stroke-miterlimit:4;stroke-dasharray:none;stroke-dashoffset:0;stroke-opacity:1"
       id="path4180-3-9"
       sodipodi:type="arc"
       sodipodi:cx="265.95398"
       sodipodi:cy="986.85028"
       sodipodi:rx="45"
       sodipodi:ry="20"
       sodipodi:start="0"
       sodipodi:end="3.0824467"
       d="m 310.95398,986.85028 a 45,20 0 0 1 -43.66941,19.99122 45,20 0 0 1 -46.2519,-18.80899"
       sodipodi:open="true" />
    <path
       style="fill:none;fill-opacity:1;stroke:#000000;stroke-width:1;stroke-linecap:round;stroke-linejoin:round;stroke-miterlimit:4;stroke-dasharray:none;stroke-dashoffset:0;stroke-opacity:1"
       id="path4180-3-5-1"
       sodipodi:type="arc"
       sodipodi:cx="266.45499"
       sodipodi:cy="958.53961"
       sodipodi:rx="45"
       sodipodi:ry="20"
       sodipodi:start="0"
       sodipodi:end="3.0824467"
       d="m 311.45499,958.53961 a 45,20 0 0 1 -43.66941,19.99126 45,20 0 0 1 -46.25191,-18.80903"
       sodipodi:open="true" />
    <path
       style="fill:none;fill-opacity:1;stroke:#000000;stroke-width:1;stroke-linecap:round;stroke-linejoin:round;stroke-miterlimit:4;stroke-dasharray:none;stroke-dashoffset:0;stroke-opacity:1"
       id="path4180-3-6-2"
       sodipodi:type="arc"
       sodipodi:cx="265.95398"
       sodipodi:cy="1016.8503"
       sodipodi:rx="45"
       sodipodi:ry="20"
       sodipodi:start="0"
       sodipodi:end="3.0824467"
       d="m 310.95398,1016.8503 a 45,20 0 0 1 -43.66941,19.9912 45,20 0 0 1 -46.2519,-18.809"
       sodipodi:open="true" />
    <path
       style="fill:none;fill-rule:evenodd;stroke:#000000;stroke-width:1px;stroke-linecap:butt;stroke-linejoin:miter;stroke-opacity:1"
       d="m 221.03268,928.0325 c 0,90 0,90 0,90"
       id="path4224-7"
       inkscape:connector-curvature="0" />
    <path
       style="fill:none;fill-rule:evenodd;stroke:#000000;stroke-width:1px;stroke-linecap:butt;stroke-linejoin:miter;stroke-opacity:1"
       d="m 311.03268,928.0325 c 0,90 0,90 0,90"
       id="path4226-0"
       inkscape:connector-curvature="0" />
    <ellipse
       style="fill:none;fill-opacity:1;stroke:#000000;stroke-width:1;stroke-linecap:round;stroke-linejoin:round;stroke-miterlimit:4;stroke-dasharray:none;stroke-dashoffset:0;stroke-opacity:1"
       id="path4180-9"
       cx="406.03268"
       cy="928.03247"
       rx="45"
       ry="20" />
    <path
       style="fill:none;fill-opacity:1;stroke:#000000;stroke-width:1;stroke-linecap:round;stroke-linejoin:round;stroke-miterlimit:4;stroke-dasharray:none;stroke-dashoffset:0;stroke-opacity:1"
       id="path4180-3-3"
       sodipodi:type="arc"
       sodipodi:cx="405.95398"
       sodipodi:cy="986.85028"
       sodipodi:rx="45"
       sodipodi:ry="20"
       sodipodi:start="0"
       sodipodi:end="3.0824467"
       d="m 450.95398,986.85028 a 45,20 0 0 1 -43.66941,19.99122 45,20 0 0 1 -46.2519,-18.80899"
       sodipodi:open="true" />
    <path
       style="fill:none;fill-opacity:1;stroke:#000000;stroke-width:1;stroke-linecap:round;stroke-linejoin:round;stroke-miterlimit:4;stroke-dasharray:none;stroke-dashoffset:0;stroke-opacity:1"
       id="path4180-3-5-6"
       sodipodi:type="arc"
       sodipodi:cx="406.45499"
       sodipodi:cy="958.53961"
       sodipodi:rx="45"
       sodipodi:ry="20"
       sodipodi:start="0"
       sodipodi:end="3.0824467"
       d="m 451.45499,958.53961 a 45,20 0 0 1 -43.66941,19.99126 45,20 0 0 1 -46.25191,-18.80903"
       sodipodi:open="true" />
    <path
       style="fill:none;fill-opacity:1;stroke:#000000;stroke-width:1;stroke-linecap:round;stroke-linejoin:round;stroke-miterlimit:4;stroke-dasharray:none;stroke-dashoffset:0;stroke-opacity:1"
       id="path4180-3-6-0"
       sodipodi:type="arc"
       sodipodi:cx="405.95398"
       sodipodi:cy="1016.8503"
       sodipodi:rx="45"
       sodipodi:ry="20"
       sodipodi:start="0"
       sodipodi:end="3.0824467"
       d="m 450.95398,1016.8503 a 45,20 0 0 1 -43.66941,19.9912 45,20 0 0 1 -46.2519,-18.809"
       sodipodi:open="true" />
    <path
       style="fill:none;fill-rule:evenodd;stroke:#000000;stroke-width:1px;stroke-linecap:butt;stroke-linejoin:miter;stroke-opacity:1"
       d="m 361.03268,928.0325 c 0,90 0,90 0,90"
       id="path4224-6"
       inkscape:connector-curvature="0" />
    <path
       style="fill:none;fill-rule:evenodd;stroke:#000000;stroke-width:1px;stroke-linecap:butt;stroke-linejoin:miter;stroke-opacity:1"
       d="m 451.03268,928.0325 c 0,90 0,90 0,90"
       id="path4226-2"
       inkscape:connector-curvature="0" />
    <ellipse
       style="fill:none;fill-opacity:1;stroke:#000000;stroke-width:1;stroke-linecap:round;stroke-linejoin:round;stroke-miterlimit:4;stroke-dasharray:none;stroke-dashoffset:0;stroke-opacity:1"
       id="path4180-6"
       cx="546.03265"
       cy="928.03247"
       rx="45"
       ry="20" />
    <path
       style="fill:none;fill-opacity:1;stroke:#000000;stroke-width:1;stroke-linecap:round;stroke-linejoin:round;stroke-miterlimit:4;stroke-dasharray:none;stroke-dashoffset:0;stroke-opacity:1"
       id="path4180-3-1"
       sodipodi:type="arc"
       sodipodi:cx="545.95398"
       sodipodi:cy="986.85028"
       sodipodi:rx="45"
       sodipodi:ry="20"
       sodipodi:start="0"
       sodipodi:end="3.0824467"
       d="m 590.95398,986.85028 a 45,20 0 0 1 -43.66941,19.99122 45,20 0 0 1 -46.2519,-18.80899"
       sodipodi:open="true" />
    <path
       style="fill:none;fill-opacity:1;stroke:#000000;stroke-width:1;stroke-linecap:round;stroke-linejoin:round;stroke-miterlimit:4;stroke-dasharray:none;stroke-dashoffset:0;stroke-opacity:1"
       id="path4180-3-5-8"
       sodipodi:type="arc"
       sodipodi:cx="546.45496"
       sodipodi:cy="958.53961"
       sodipodi:rx="45"
       sodipodi:ry="20"
       sodipodi:start="0"
       sodipodi:end="3.0824467"
       d="m 591.45496,958.53961 a 45,20 0 0 1 -43.66941,19.99126 45,20 0 0 1 -46.25191,-18.80903"
       sodipodi:open="true" />
    <path
       style="fill:none;fill-opacity:1;stroke:#000000;stroke-width:1;stroke-linecap:round;stroke-linejoin:round;stroke-miterlimit:4;stroke-dasharray:none;stroke-dashoffset:0;stroke-opacity:1"
       id="path4180-3-6-7"
       sodipodi:type="arc"
       sodipodi:cx="545.95398"
       sodipodi:cy="1016.8503"
       sodipodi:rx="45"
       sodipodi:ry="20"
       sodipodi:start="0"
       sodipodi:end="3.0824467"
       d="m 590.95398,1016.8503 a 45,20 0 0 1 -43.66941,19.9912 45,20 0 0 1 -46.2519,-18.809"
       sodipodi:open="true" />
    <path
       style="fill:none;fill-rule:evenodd;stroke:#000000;stroke-width:1px;stroke-linecap:butt;stroke-linejoin:miter;stroke-opacity:1"
       d="m 501.03268,928.03252 c 0,89.99998 0,89.99998 0,89.99998"
       id="path4224-9"
       inkscape:connector-curvature="0" />
    <path
       style="fill:none;fill-rule:evenodd;stroke:#000000;stroke-width:1px;stroke-linecap:butt;stroke-linejoin:miter;stroke-opacity:1"
       d="m 591.03268,928.03252 c 0,89.99998 0,89.99998 0,89.99998"
       id="path4226-20"
       inkscape:connector-curvature="0" />
    <path
       style="fill:#a0a0a0;stroke:none;stroke-width:1px;stroke-linecap:butt;stroke-linejoin:miter;stroke-opacity:1"
       d="M 106.30284,975.06108 C 97.231709,973.09669 87.717443,968.213 84.337036,963.786 c -2.658085,-3.48105 -2.797808,-4.23736 -3.11462,-16.85922 l -0.331691,-13.21468 2.857073,2.66936 c 3.794599,3.5453 11.617449,7.37532 19.596712,9.59444 9.21898,2.5639 35.0886,2.55821 44.37459,-0.01 8.07714,-2.23367 15.76259,-5.98244 19.44544,-9.48501 l 2.77792,-2.64194 -0.004,13.06844 c -0.004,15.50863 -0.96203,17.83747 -9.28995,22.59374 -11.50978,6.5735 -37.42279,9.22446 -54.34589,5.55971 z"
       id="path4290"
       inkscape:connector-curvature="0" />
    <path
       style="fill:#ffa000;fill-opacity:1;stroke:none;stroke-width:1px;stroke-linecap:butt;stroke-linejoin:miter;stroke-opacity:1"
       d="M 107.313,944.76914 C 90.309496,941.1197 80.296721,933.55727 81.832347,925.52416 82.681462,921.08231 90.353343,915.52424 100,912.3622 c 8.33959,-2.7336 9.77871,-2.89183 26.00082,-2.85877 15.91192,0.0324 17.76921,0.23478 25.29955,2.75654 8.59844,2.87943 16.0313,8.15077 17.70673,12.55749 2.00022,5.26096 -2.90504,11.62921 -12.1996,15.83813 -11.97166,5.42121 -34.6284,7.30424 -49.4945,4.11355 z"
       id="path4292"
       inkscape:connector-curvature="0" />
    <path
       style="fill:#ffa000;fill-opacity:1;stroke:none;stroke-width:1px;stroke-linecap:butt;stroke-linejoin:miter;stroke-opacity:1"
       d="m 118.42468,976.59179 c 0,-0.36642 -2.84106,-0.94062 -6.31346,-1.27599 -12.176385,-1.17604 -24.585517,-7.06117 -28.120895,-13.33656 -1.179389,-2.09345 -1.901491,-6.66115 -2.365444,-14.96279 l -0.667818,-11.94946 4.610789,3.17231 c 2.535935,1.74477 5.477559,3.33923 6.536943,3.54325 1.059385,0.20402 3.076349,1.12458 4.482145,2.04569 1.405796,0.92111 2.991726,1.40545 3.52429,1.07631 0.53256,-0.32914 1.12877,-0.11702 1.32491,0.47139 0.46656,1.39968 7.56049,2.15859 22.75995,2.43486 14.13914,0.25699 22.88903,-0.7113 28.31937,-3.13391 3.96134,-1.76726 4.7236,-2.04407 6.20197,-2.25223 0.49324,-0.0694 3.29293,-1.77451 6.22153,-3.78903 l 5.32472,-3.66277 -0.60447,12.0223 c -0.33246,6.61226 -1.06957,13.24558 -1.63801,14.7407 -0.56845,1.49513 -2.98248,4.08928 -5.36452,5.76478 -2.38204,1.67551 -4.85075,3.48164 -5.48603,4.01363 -0.63528,0.53199 -1.33648,0.78583 -1.55823,0.56408 -0.22175,-0.22175 -2.97939,0.26957 -6.12811,1.09181 -6.59258,1.72156 -31.05963,4.41693 -31.05963,3.42163 z"
       id="path4294"
       inkscape:connector-curvature="0" />
    <path
       style="fill:#ffa000;fill-opacity:1;stroke:none;stroke-width:1px;stroke-linecap:butt;stroke-linejoin:miter;stroke-opacity:1"
       d="m 253.97994,946.32924 c -19.05759,-2.66395 -31.50955,-9.82243 -31.50955,-18.11446 0,-5.00266 2.50187,-8.0506 9.78461,-11.92025 9.83625,-5.22645 17.17147,-6.69543 33.65195,-6.73928 12.35696,-0.0329 15.94395,0.32827 22.94046,2.30968 9.70897,2.74959 16.66226,6.84363 19.48432,11.47222 2.57736,4.22724 2.53775,5.78503 -0.25091,9.87008 -6.52399,9.55686 -33.24336,16.03756 -54.10088,13.12201 z"
       id="path4296"
       inkscape:connector-curvature="0" />
    <path
       style="fill:#ffa000;fill-opacity:1;stroke:none;stroke-width:1px;stroke-linecap:butt;stroke-linejoin:miter;stroke-opacity:1"
       d="m 252.30598,976.60075 c -12.33658,-1.94267 -22.40619,-6.43513 -27.20374,-12.13669 -2.54282,-3.02197 -2.63185,-3.57578 -2.63185,-16.37125 l 0,-13.24347 2.77792,2.60324 c 7.75595,7.26823 21.82538,11.11415 40.65864,11.11415 19.02505,0 33.54059,-3.96212 41.39474,-11.29901 l 3.05197,-2.85096 0,13.53435 0,13.53436 -3.54397,3.92276 c -6.34238,7.02025 -19.14162,11.09161 -36.86213,11.72563 -6.38921,0.2286 -14.32792,-0.0113 -17.64158,-0.53311 z"
       id="path4298"
       inkscape:connector-curvature="0" />
    <path
       style="fill:#ffa000;fill-opacity:1;stroke:none;stroke-width:1px;stroke-linecap:butt;stroke-linejoin:miter;stroke-opacity:1"
       d="m 393.69125,946.26174 c -9.05029,-1.22708 -18.16609,-4.25285 -24.04507,-7.98119 -15.40853,-9.7718 -5.5716,-23.14002 20.50953,-27.87211 27.07102,-4.9117 59.599,4.51507 59.599,17.27207 0,4.08703 -3.56077,8.60876 -9.53742,12.11131 -9.38959,5.50267 -31.2446,8.54183 -46.52604,6.46992 z"
       id="path4300"
       inkscape:connector-curvature="0" />
    <path
       style="fill:#ffa000;fill-opacity:1;stroke:none;stroke-width:1px;stroke-linecap:butt;stroke-linejoin:miter;stroke-opacity:1"
       d="m 389.65064,976.04248 c -10.06944,-1.78176 -21.74574,-7.30554 -24.95577,-11.80596 -2.07608,-2.91064 -2.35346,-4.61295 -2.65434,-16.28977 l -0.336,-13.03946 3.36645,2.84444 c 14.7769,12.48555 54.10374,14.85178 74.753,4.49776 2.40619,-1.20652 5.62496,-3.36513 7.15281,-4.79691 l 2.77792,-2.60324 0,13.98246 0,13.98246 -3.86521,3.67689 c -9.57062,9.10431 -34.67239,13.36747 -56.23886,9.55133 z"
       id="path4302"
       inkscape:connector-curvature="0" />
    <path
       style="fill:#a0a0a0;stroke:none;stroke-width:1px;stroke-linecap:butt;stroke-linejoin:miter;stroke-opacity:1"
       d="m 533.98937,946.2874 c -18.5544,-2.42095 -31.70672,-10.12174 -31.70672,-18.56454 0,-12.79987 32.47791,-22.2352 59.599,-17.31442 15.28469,2.77321 26.58431,9.35554 27.86586,16.23259 1.65019,8.85532 -12.07921,17.05515 -32.89013,19.6435 -9.52835,1.18509 -13.80323,1.18563 -22.86801,0.003 l 0,4e-5 z"
       id="path4304"
       inkscape:connector-curvature="0" />
    <path
       style="fill:#a0a0a0;stroke:none;stroke-width:1px;stroke-linecap:butt;stroke-linejoin:miter;stroke-opacity:1"
       d="m 532.90542,976.70469 c -14.1069,-2.24787 -26.24942,-8.14541 -29.3384,-14.24946 -0.79636,-1.57367 -1.26003,-7.06783 -1.26948,-15.04253 l -0.0149,-12.56336 2.77792,2.65727 c 15.39939,14.73052 64.53938,14.91991 81.82235,0.31534 l 3.283,-2.77422 0,13.62003 0,13.62003 -2.94731,3.1551 c -3.37268,3.61047 -10.98507,7.34258 -19.78112,9.69806 -7.02007,1.87989 -26.89876,2.78007 -34.53207,1.56374 z"
       id="path4306"
       inkscape:connector-curvature="0" />
    <path
       style="fill:none;fill-opacity:1;stroke:none;stroke-width:1px;stroke-linecap:butt;stroke-linejoin:miter;stroke-opacity:1"
       d="m 105.82708,1003.2543 c -9.121703,-1.9546 -16.360084,-5.42767 -20.755328,-9.95867 l -3.517644,-3.6263 -0.331649,-13.02021 -0.331649,-13.02022 3.52288,3.3225 c 7.58864,7.15701 19.21272,10.69399 37.54652,11.42466 9.64155,0.38426 15.3848,0.097 21.60771,-1.08086 9.42307,-1.78352 19.96037,-6.26745 23.83571,-10.14279 l 2.53883,-2.53883 0,10.59313 c 0,11.42174 -1.11137,15.56756 -5.17609,19.30871 -3.5111,3.23159 -12.83594,7.23778 -20.74969,8.91448 -8.87603,1.8807 -29.02565,1.788 -38.1896,-0.1756 z"
       id="path4308"
       inkscape:connector-curvature="0" />
    <path
       style="fill:none;fill-opacity:1;stroke:none;stroke-width:1px;stroke-linecap:butt;stroke-linejoin:miter;stroke-opacity:1"
       d="m 109.58314,1034.1788 c -12.435378,-2.2284 -22.993862,-7.5501 -26.549461,-13.3815 -1.680333,-2.7558 -1.977662,-5.1156 -1.980872,-15.7216 l -0.0038,-12.47897 3.73392,3.27843 c 16.989213,14.91674 64.436373,14.91674 81.425583,0 l 3.73392,-3.27843 0,11.75387 c 0,13.9684 -1.11677,17.3611 -7.15454,21.7348 -7.58188,5.4923 -18.64459,8.3006 -34.26171,8.6976 -7.50039,0.1906 -16.02476,-0.081 -18.94307,-0.6042 z"
       id="path4310"
       inkscape:connector-curvature="0" />
    <path
       style="fill:none;fill-opacity:1;stroke:none;stroke-width:1px;stroke-linecap:butt;stroke-linejoin:miter;stroke-opacity:1"
       d="m 249.80532,1004.3956 c -8.61413,-1.5589 -15.11988,-3.8411 -20.42963,-7.16681 -6.40324,-4.01058 -6.9053,-5.42717 -6.9053,-19.48374 l 0,-12.59113 2.77792,2.60324 c 3.84563,3.6038 9.82856,6.4399 19.11895,9.06298 10.35869,2.92471 32.62225,3.1724 42.75289,0.47564 8.62012,-2.29466 17.00212,-6.18112 20.45559,-9.4846 l 2.77792,-2.65726 -0.002,11.04813 c -10e-4,8.50462 -0.40818,11.85594 -1.76776,14.55695 -5.78846,11.4996 -34.18452,18.0875 -58.77901,13.6366 z"
       id="path4312"
       inkscape:connector-curvature="0" />
    <path
       style="fill:none;fill-opacity:1;stroke:none;stroke-width:1px;stroke-linecap:butt;stroke-linejoin:miter;stroke-opacity:1"
       d="m 254.60353,1035.189 c -13.00425,-1.5164 -23.36587,-5.4868 -28.98596,-11.1069 l -3.14718,-3.1472 0,-13.071 0,-13.07108 5.1494,3.54216 c 13.33855,9.17532 39.77756,12.02462 61.06296,6.58072 8.76122,-2.2407 16.92328,-6.3465 19.74322,-9.93148 1.92532,-2.44764 1.92769,-2.43544 1.92769,9.90728 0,9.2386 -0.40821,13.2182 -1.61721,15.7659 -3.31655,6.9892 -16.02554,12.6708 -32.5881,14.5687 -9.67534,1.1087 -11.75021,1.1051 -21.54482,-0.037 z"
       id="path4314"
       inkscape:connector-curvature="0" />
    <path
       style="fill:none;fill-opacity:1;stroke:none;stroke-width:1px;stroke-linecap:butt;stroke-linejoin:miter;stroke-opacity:1"
       d="m 391.70703,1004.814 c -12.094,-1.7619 -22.36794,-6.31865 -27.20374,-12.06567 -2.52852,-3.00498 -2.63185,-3.62352 -2.63185,-15.75488 l 0,-12.62711 3.14718,3.14718 c 14.5491,14.5491 59.67282,16.03149 79.60919,2.61531 l 5.1269,-3.45015 0,11.14004 c 0,8.38349 -0.39866,11.81494 -1.61112,13.86746 -6.1027,10.33102 -32.87919,16.55952 -56.43656,13.12782 z"
       id="path4316"
       inkscape:connector-curvature="0" />
    <path
       style="fill:none;fill-opacity:1;stroke:none;stroke-width:1px;stroke-linecap:butt;stroke-linejoin:miter;stroke-opacity:1"
       d="m 394.88184,1035.1762 c -14.14454,-1.6441 -26.61844,-6.92 -30.70768,-12.988 -2.09276,-3.1054 -2.30272,-4.5719 -2.30272,-16.0835 l 0,-12.66651 2.77792,2.65726 c 3.44183,3.29234 11.80465,7.17655 20.45559,9.50085 8.78937,2.3616 32.05586,2.4146 41.41626,0.094 9.03794,-2.2402 15.19814,-5.0286 19.5494,-8.8491 l 3.6841,-3.23469 0,13.15909 c 0,12.621 -0.10503,13.284 -2.56803,16.2111 -5.23166,6.2175 -15.76143,10.4051 -30.7405,12.2253 -9.44196,1.1474 -11.48843,1.1449 -21.56434,-0.026 z"
       id="path4318"
       inkscape:connector-curvature="0" />
    <path
       style="fill:none;stroke:none;stroke-width:1px;stroke-linecap:butt;stroke-linejoin:miter;stroke-opacity:1"
       d="m 529.05169,1004.3727 c -9.70389,-1.8284 -19.80241,-6.34284 -23.8278,-10.65203 -2.92048,-3.12639 -2.94124,-3.23693 -2.94124,-15.66202 l 0,-12.5134 4.51095,3.44328 c 9.10112,6.94704 21.91035,10.13603 40.44084,10.06816 18.51667,-0.0678 31.24445,-3.47273 39.24738,-10.49939 l 3.6841,-3.23469 -0.004,11.46886 c -0.004,13.42021 -1.17199,16.26252 -8.62088,20.98647 -10.65376,6.75646 -35.2381,9.84516 -52.48957,6.59476 z"
       id="path4320"
       inkscape:connector-curvature="0" />
    <path
       style="fill:none;stroke:none;stroke-width:1px;stroke-linecap:butt;stroke-linejoin:miter;stroke-opacity:1"
       d="m 534.60753,1035.2574 c -13.50505,-1.6871 -24.1747,-5.965 -29.22561,-11.7177 l -3.09927,-3.5299 0,-13.2345 0,-13.23462 2.64758,2.64758 c 7.023,7.02304 21.6937,11.08464 40.2839,11.15274 18.53049,0.068 31.33972,-3.1212 40.44084,-10.0682 l 4.51095,-3.44328 0,12.47088 c 0,11.2728 -0.21835,12.7907 -2.27284,15.8003 -6.44956,9.4478 -32.15977,15.7959 -53.28555,13.1567 z"
       id="path4322"
       inkscape:connector-curvature="0" />
    <text
       xml:space="preserve"
       style="font-style:normal;font-weight:normal;font-size:22.5px;line-height:125%;font-family:sans-serif;text-align:center;letter-spacing:0px;word-spacing:0px;writing-mode:lr-tb;text-anchor:middle;fill:#000000;fill-opacity:1;stroke:none;stroke-width:1px;stroke-linecap:butt;stroke-linejoin:miter;stroke-opacity:1"
       x="125.12325"
       y="895.21387"
       id="text4324"
       sodipodi:linespacing="125%"><tspan
         sodipodi:role="line"
         id="tspan4326"
         x="125.12325"
         y="895.21387">Disk 0</tspan></text>
    <text
       xml:space="preserve"
       style="font-style:normal;font-weight:normal;font-size:22.5px;line-height:125%;font-family:sans-serif;text-align:center;letter-spacing:0px;word-spacing:0px;writing-mode:lr-tb;text-anchor:middle;fill:#000000;fill-opacity:1;stroke:none;stroke-width:1px;stroke-linecap:butt;stroke-linejoin:miter;stroke-opacity:1"
       x="265.70554"
       y="895.21387"
       id="text4328"
       sodipodi:linespacing="125%"><tspan
         sodipodi:role="line"
         id="tspan4330"
         x="265.70554"
         y="895.21387">Disk 1</tspan></text>
    <text
       xml:space="preserve"
       style="font-style:normal;font-weight:normal;font-size:22.5px;line-height:125%;font-family:sans-serif;text-align:center;letter-spacing:0px;word-spacing:0px;writing-mode:lr-tb;text-anchor:middle;fill:#000000;fill-opacity:1;stroke:none;stroke-width:1px;stroke-linecap:butt;stroke-linejoin:miter;stroke-opacity:1"
       x="405.88132"
       y="894.6272"
       id="text4332"
       sodipodi:linespacing="125%"><tspan
         sodipodi:role="line"
         id="tspan4334"
         x="405.88132"
         y="894.6272">Disk 2</tspan></text>
    <text
       xml:space="preserve"
       style="font-style:normal;font-weight:normal;font-size:22.5px;line-height:125%;font-family:sans-serif;text-align:center;letter-spacing:0px;word-spacing:0px;writing-mode:lr-tb;text-anchor:middle;fill:#000000;fill-opacity:1;stroke:none;stroke-width:1px;stroke-linecap:butt;stroke-linejoin:miter;stroke-opacity:1"
       x="545.43085"
       y="893.21387"
       id="text4336"
       sodipodi:linespacing="125%"><tspan
         sodipodi:role="line"
         id="tspan4338"
         x="545.43085"
         y="893.21387">Disk 3</tspan></text>
    <text
       xml:space="preserve"
       style="font-style:normal;font-weight:normal;font-size:22.5px;line-height:125%;font-family:sans-serif;text-align:center;letter-spacing:0px;word-spacing:0px;writing-mode:lr-tb;text-anchor:middle;fill:#000000;fill-opacity:1;stroke:none;stroke-width:1px;stroke-linecap:butt;stroke-linejoin:miter;stroke-opacity:1"
       x="38.353722"
       y="952.85229"
       id="text4340"
       sodipodi:linespacing="125%"><tspan
         sodipodi:role="line"
         id="tspan4342"
         x="38.353722"
         y="952.85229">Stripe</tspan></text>
    <text
       xml:space="preserve"
       style="font-style:normal;font-weight:normal;font-size:22.5px;line-height:125%;font-family:sans-serif;text-align:center;letter-spacing:0px;word-spacing:0px;writing-mode:lr-tb;text-anchor:middle;fill:#000000;fill-opacity:1;stroke:none;stroke-width:1px;stroke-linecap:butt;stroke-linejoin:miter;stroke-opacity:1"
       x="194.99438"
       y="952.04358"
       id="text4344"
       sodipodi:linespacing="125%"><tspan
         sodipodi:role="line"
         id="tspan4346"
         x="194.99438"
         y="952.04358">XOR</tspan></text>
    <text
       xml:space="preserve"
       style="font-style:normal;font-weight:normal;font-size:22.5px;line-height:125%;font-family:sans-serif;text-align:center;letter-spacing:0px;word-spacing:0px;writing-mode:lr-tb;text-anchor:middle;fill:#000000;fill-opacity:1;stroke:none;stroke-width:1px;stroke-linecap:butt;stroke-linejoin:miter;stroke-opacity:1"
       x="336.99438"
       y="951.0614"
       id="text4348"
       sodipodi:linespacing="125%"><tspan
         sodipodi:role="line"
         id="tspan4350"
         x="336.99438"
         y="951.0614">XOR</tspan></text>
    <text
       xml:space="preserve"
       style="font-style:normal;font-weight:normal;font-size:22.5px;line-height:125%;font-family:sans-serif;text-align:center;letter-spacing:0px;word-spacing:0px;writing-mode:lr-tb;text-anchor:middle;fill:#000000;fill-opacity:1;stroke:none;stroke-width:1px;stroke-linecap:butt;stroke-linejoin:miter;stroke-opacity:1"
       x="475.04224"
       y="950.22937"
       id="text4356"
       sodipodi:linespacing="125%"><tspan
         sodipodi:role="line"
         id="tspan4358"
         x="475.04224"
         y="950.22937">=</tspan></text>
  </g>
</svg>
